<svg xmlns="http://www.w3.org/2000/svg" viewBox="0 0 160 160"><path fill="#fff" fill-rule="evenodd" d="M67,48 L60,48 L59,49 L54,49 L52,51 L50,51 L44,54 L42,54 L34,58 L29,62 L26,63 L25,65 L19,71 L18,73 L20,77 L20,80 L22,83 L23,82 L23,79 L24,78 L24,76 L26,73 L29,73 L29,72 L37,64 L40,63 L43,60 L44,60 L46,58 L50,56 L52,56 L53,55 L57,55 L58,54 L60,54 L61,53 L64,53 L66,52 L67,50Z M99,45 L99,47 L100,47 L105,52 L111,52 L112,53 L114,53 L122,57 L124,59 L125,59 L127,61 L131,63 L138,70 L140,71 L139,68 L129,58 L128,58 L125,55 L124,55 L119,51 L112,48 L111,47 L112,45 L110,44 L101,44Z M81,21 L80,22 L80,25 L77,31 L77,35 L75,37 L75,39 L73,41 L72,43 L72,45 L70,47 L69,52 L67,56 L65,58 L64,60 L64,62 L63,63 L63,65 L66,69 L64,71 L61,71 L59,73 L58,73 L56,77 L56,80 L58,82 L58,83 L63,87 L65,88 L67,88 L68,89 L70,89 L71,90 L73,90 L74,91 L78,91 L79,92 L76,95 L76,104 L75,105 L73,105 L72,104 L67,104 L66,103 L64,103 L58,100 L48,91 L48,87 L54,82 L53,80 L44,83 L40,87 L39,89 L39,94 L40,96 L46,102 L47,102 L52,106 L64,112 L66,112 L67,113 L72,114 L81,123 L81,125 L84,127 L83,129 L79,129 L78,128 L78,126 L76,124 L76,123 L75,123 L75,124 L73,126 L73,130 L74,132 L78,135 L85,135 L89,132 L91,127 L97,124 L100,121 L101,121 L101,120 L105,116 L106,114 L104,114 L94,120 L89,120 L86,123 L84,123 L83,122 L89,116 L89,114 L88,113 L89,112 L94,112 L95,114 L97,112 L100,113 L102,111 L105,111 L107,109 L110,108 L114,104 L118,102 L122,98 L124,94 L124,92 L125,91 L125,84 L123,80 L122,80 L119,77 L117,76 L113,76 L112,75 L112,73 L113,72 L113,67 L112,65 L109,62 L109,61 L105,57 L102,56 L100,54 L99,54 L97,56 L96,55 L92,47 L92,45 L89,40 L89,38 L86,33 L86,31 L83,25 L83,23 L82,21Z M113,78 L117,85 L117,87 L116,89 L107,98 L105,99 L103,95 L102,95 L100,93 L95,92 L93,94 L97,96 L100,99 L102,99 L103,98 L105,99 L101,102 L98,102 L97,103 L94,103 L93,104 L88,104 L87,103 L87,95 L81,92 L82,91 L91,91 L92,90 L95,90 L98,88 L100,88 L102,86 L103,86 L111,78Z M61,75 L64,72 L67,72 L69,74 L70,77 L72,79 L74,83 L72,84 L71,83 L66,82 L62,78Z M101,62 L107,70 L107,74 L100,81 L98,82 L96,82 L95,83 L92,83 L91,84 L89,82 L95,75 L95,73 L98,67 L100,65 L100,63Z M81,45 L82,46 L82,52 L83,53 L83,55 L82,56 L82,60 L81,61 L79,58 L79,53 L78,52 L79,47Z"/></svg>